<svg xmlns="http://www.w3.org/2000/svg" width="28" height="66" viewBox="0 0 28 66">
  <g id="form_rdo_square" transform="translate(14985 20082)">
    <g id="check_box_28" transform="translate(-14985 -20082)">
      <rect id="box" width="28" height="28" rx="8"/>
      <g id="check" opacity="0.3">
        <rect id="area" width="28" height="28" fill="none" opacity="0"/>
        <path id="합치기_14" data-name="합치기 14" d="M3.191,8.838,3.179,8.83l-.005,0a.887.887,0,0,1-.119-.106l0,0-2.8-2.96a.957.957,0,0,1,0-1.3.836.836,0,0,1,1.229,0L3.669,6.769,9.811.269a.836.836,0,0,1,1.229,0,.957.957,0,0,1,0,1.3L4.311,8.691l-.027.03a.833.833,0,0,1-1.093.118Z" transform="translate(8.353 9.717)" fill="#fff"/>
      </g>
    </g>
    <g id="check_box_28-2" data-name="check_box_28" transform="translate(-14985 -20044)">
      <rect id="box-2" data-name="box" width="28" height="28" rx="8"/>
      <g id="check-2" data-name="check">
        <rect id="area-2" data-name="area" width="28" height="28" fill="none" opacity="0"/>
        <path id="합치기_14-2" data-name="합치기 14" d="M3.191,8.838,3.179,8.83l-.005,0a.887.887,0,0,1-.119-.106l0,0-2.8-2.96a.957.957,0,0,1,0-1.3.836.836,0,0,1,1.229,0L3.669,6.769,9.811.269a.836.836,0,0,1,1.229,0,.957.957,0,0,1,0,1.3L4.311,8.691l-.027.03a.833.833,0,0,1-1.093.118Z" transform="translate(8.353 9.717)" fill="#fff"/>
      </g>
    </g>
  </g>
</svg>
